# xmcd CD database file
#
# Track frame offsets:
#        150
#        16342
#        32033
#        46266
#        60295
#        72921
#        85656
#        99956
#        111409
#        125226
#        141479
#        154345
#        169921
#        186094
#
# Disc length: 2679 seconds
#
# Revision: 0
# Processed by: cddbd v1.5.2PL0 Copyright (c) Steve Scherf et al.
# Submitted via: CUERipper 2.1.5
#
DISCID=bf0a750e
DTITLE=Léo Magalhães - Ao Vivo
DYEAR=2011
DGENRE=Sertanejo
TTITLE0=Eu Canto, Bebo e Choro por Você
TTITLE1=A Culpa é Sua
TTITLE2=Tô Pagando Pau pra Ela
TTITLE3=24 Horas
TTITLE4=Por Isso
TTITLE5=Greve de Fome
TTITLE6=O Cara Errado
TTITLE7=Eu Vou Rifar Meu Coração
TTITLE8=Cuida de Mim [part. Amado Batista]
TTITLE9=Primeiro de Abril
TTITLE10=Nosso Amor Já Era
TTITLE11=Tentação Cruel
TTITLE12=Camas Separadas
TTITLE13=Locutor
EXTD=
EXTT0=
EXTT1=
EXTT2=
EXTT3=
EXTT4=
EXTT5=
EXTT6=
EXTT7=
EXTT8=
EXTT9=
EXTT10=
EXTT11=
EXTT12=
EXTT13=
PLAYORDER=
